<svg id="Layer_4" data-name="Layer 4" xmlns="http://www.w3.org/2000/svg" viewBox="0 0 478.06 135.3"><defs><style>.cls-1{fill:#172a3a;}.cls-2{fill:gold;}</style></defs><path class="cls-1" d="M134,77.72a24.16,24.16,0,0,1-20.3-23.88V37.73a3.87,3.87,0,0,1,7.73,0V53.84a16.43,16.43,0,0,0,32.86,0V37.73a3.87,3.87,0,0,1,7.74,0h0V53.84a24.16,24.16,0,0,1-20.3,23.88V98.3a3.87,3.87,0,1,1-7.73.39,2.54,2.54,0,0,1,0-.39Z"/><path class="cls-1" d="M164.07,78.11a24.17,24.17,0,1,1,24.17,24.17h0A24.19,24.19,0,0,1,164.07,78.11Zm40.6,0a16.43,16.43,0,1,0-16.43,16.44,16.43,16.43,0,0,0,16.43-16.44Z"/><path class="cls-1" d="M259.08,95.69a23.87,23.87,0,0,1-16.43,6.48A24.18,24.18,0,0,1,218.49,78V57.71a3.87,3.87,0,0,1,7.73-.4,2.67,2.67,0,0,1,0,.4V78a16.43,16.43,0,0,0,32.86,0V57.71a3.87,3.87,0,1,1,7.74,0h0V98.3a3.87,3.87,0,0,1-7.74,0Z"/><path class="cls-1" d="M276,57.71a3.87,3.87,0,1,1,7.74,0v2.61a23.78,23.78,0,0,1,16.43-6.48,3.87,3.87,0,0,1,0,7.73A16.42,16.42,0,0,0,283.75,78V98.3a3.87,3.87,0,0,1-7.74,0Z"/><path class="cls-1" d="M315.84,81.87a16.39,16.39,0,0,0,27.55,7.73,3.9,3.9,0,0,1,5.51,5.51A24.2,24.2,0,1,1,356,78a3.88,3.88,0,0,1-3.86,3.87Zm31.9-7.73a16.4,16.4,0,0,0-31.9,0Z"/><path class="cls-1" d="M386.21,83.51,368.61,101a3.51,3.51,0,0,1-2.7,1.16A3.89,3.89,0,0,1,362,98.3V37.68a3.87,3.87,0,0,1,7.73,0V88.93l34-33.93a3.83,3.83,0,0,1,5.41,5.41L391.68,78l17.5,17.6a3.83,3.83,0,0,1-5.41,5.41Z"/><path class="cls-1" d="M455.28,95.69a23.87,23.87,0,0,1-16.43,6.48A24.17,24.17,0,1,1,463,78h0V98.3a3.87,3.87,0,1,1-7.73.39,2.54,2.54,0,0,1,0-.39Zm0-17.69a16.43,16.43,0,1,0-16.43,16.44A16.43,16.43,0,0,0,455.28,78Z"/><path class="cls-1" d="M62.05,117.24H42.5a2.91,2.91,0,1,1-.44-5.8h20a2.91,2.91,0,1,1,.45,5.8A3.38,3.38,0,0,1,62.05,117.24Z"/><path class="cls-1" d="M60.43,126.65H44.13a2.91,2.91,0,1,1,0-5.81h16.3a2.91,2.91,0,0,1,0,5.81Z"/><path class="cls-2" d="M78.28,18.83A37.54,37.54,0,1,0,31.17,77a4.18,4.18,0,0,1,1.73,3.46l.18,14.66A10.88,10.88,0,0,0,43.94,106h17.3A10.89,10.89,0,0,0,72.11,95.15V80.46a4,4,0,0,1,1.73-3.36,37.54,37.54,0,0,0,9.61-52.21,38.08,38.08,0,0,0-5.2-6.06Zm-14,61.63V95.15a3,3,0,0,1-3,3H44a3,3,0,0,1-3-3h0l-.17-14.64a12.13,12.13,0,0,0-5.19-9.91A29.42,29.42,0,0,1,23,43.66,29.73,29.73,0,0,1,50.67,16.59h1.92a29.65,29.65,0,0,1,16.8,54.08A11.9,11.9,0,0,0,64.29,80.46Z"/><path class="cls-1" d="M63,36.59a2.77,2.77,0,0,0-2.78,2.78v3.44a7.57,7.57,0,0,1-15.12.77,5,5,0,0,1,0-.77V39.43a2.79,2.79,0,0,0-5.57,0v3.44A13.07,13.07,0,0,0,49.84,55.72v8.92a2.78,2.78,0,0,0,5.56,0h0V55.72A13.08,13.08,0,0,0,65.73,42.87V39.43A2.78,2.78,0,0,0,63,36.59Z"/></svg>